<?xml version="1.0" encoding="UTF-8" standalone="no"?>
<!DOCTYPE svg PUBLIC "-//W3C//DTD SVG 1.1//EN" "http://www.w3.org/Graphics/SVG/1.1/DTD/svg11.dtd">
<svg width="100%" height="100%" viewBox="0 0 3331 397" version="1.1" xmlns="http://www.w3.org/2000/svg" xmlns:xlink="http://www.w3.org/1999/xlink" xml:space="preserve" xmlns:serif="http://www.serif.com/" style="fill-rule:evenodd;clip-rule:evenodd;stroke-linejoin:round;stroke-miterlimit:2;">
    <g transform="matrix(1,0,0,1,5587.57,-1114.28)">
        <g transform="matrix(1,0,0,1,0,796.505)">
            <g transform="matrix(1,0,0,1,0,-28.7877)">
                <g transform="matrix(4.16667,0,0,4.16667,-4606.28,508.48)">
                    <path d="M0,-23.744L-6.448,-5.951L6.447,-5.951L0,-23.744ZM11.469,8.804L8.865,1.799L-8.866,1.799L-11.47,8.804L-21.451,8.804L-5.518,-32.548L5.518,-32.548L21.45,8.804L11.469,8.804Z" style="fill:white;fill-rule:nonzero;"/>
                </g>
                <g transform="matrix(4.16667,0,0,4.16667,-4348.7,372.862)">
                    <path d="M0,41.352L-15.934,0L-5.952,0L5.518,31.743L16.986,0L26.968,0L11.035,41.352L0,41.352Z" style="fill:white;fill-rule:nonzero;"/>
                </g>
                <g transform="matrix(4.16667,0,0,4.16667,-4045.15,508.48)">
                    <path d="M0,-23.744L-6.448,-5.951L6.447,-5.951L0,-23.744ZM11.469,8.804L8.865,1.799L-8.866,1.799L-11.47,8.804L-21.451,8.804L-5.518,-32.548L5.518,-32.548L21.45,8.804L11.469,8.804Z" style="fill:white;fill-rule:nonzero;"/>
                </g>
                <g transform="matrix(4.16667,0,0,4.16667,-3825.29,372.862)">
                    <path d="M0,41.352L0,0L8.865,0L8.865,33.603L26.349,33.603L26.349,41.352L0,41.352Z" style="fill:white;fill-rule:nonzero;"/>
                </g>
                <g transform="matrix(4.16667,0,0,4.16667,-3503.39,508.48)">
                    <path d="M0,-23.744L-6.448,-5.951L6.447,-5.951L0,-23.744ZM11.469,8.804L8.865,1.799L-8.866,1.799L-11.47,8.804L-21.451,8.804L-5.518,-32.548L5.518,-32.548L21.45,8.804L11.469,8.804Z" style="fill:white;fill-rule:nonzero;"/>
                </g>
                <g transform="matrix(4.16667,0,0,4.16667,-3163.16,372.862)">
                    <path d="M0,41.352L-19.715,14.384L-19.715,41.352L-28.519,41.352L-28.519,0L-19.467,0L-0.311,25.977L-0.311,0L8.493,0L8.493,41.352L0,41.352Z" style="fill:white;fill-rule:nonzero;"/>
                </g>
                <g transform="matrix(4.16667,0,0,4.16667,-2985.92,459.143)">
                    <path d="M0,-0.001C0,-12.772 9.61,-21.39 22.071,-21.39C31.123,-21.39 36.393,-16.491 39.307,-11.284L31.742,-7.563C30.007,-10.911 26.287,-13.577 22.071,-13.577C14.508,-13.577 9.052,-7.812 9.052,-0.001C9.052,7.811 14.508,13.577 22.071,13.577C26.287,13.577 30.007,10.911 31.742,7.563L39.307,11.222C36.393,16.366 31.123,21.389 22.071,21.389C9.61,21.389 0,12.709 0,-0.001" style="fill:white;fill-rule:nonzero;"/>
                </g>
                <g transform="matrix(4.16667,0,0,4.16667,-2566.12,372.862)">
                    <path d="M0,41.352L0,23.931L-19.528,23.931L-19.528,41.352L-28.332,41.352L-28.332,0L-19.528,0L-19.528,16.244L0,16.244L0,0L8.866,0L8.866,41.352L0,41.352Z" style="fill:white;fill-rule:nonzero;"/>
                </g>
                <g transform="matrix(4.16667,0,0,4.16667,-2379.32,372.862)">
                    <path d="M0,41.352L0,0L29.263,0L29.263,7.749L8.804,7.749L8.804,16.429L28.828,16.429L28.828,24.179L8.804,24.179L8.804,33.603L29.263,33.603L29.263,41.352L0,41.352Z" style="fill:white;fill-rule:nonzero;"/>
                </g>
                <g transform="matrix(4.16667,0,0,4.16667,-4614.99,606.298)">
                    <path d="M0,26.675L0,14.438L-15.759,14.438L-15.759,26.675L-19.113,26.675L-19.113,0L-15.759,0L-15.759,11.478L0,11.478L0,0L3.354,0L3.354,26.675L0,26.675Z" style="fill:white;fill-rule:nonzero;"/>
                </g>
                <g transform="matrix(4.16667,0,0,4.16667,-4473.53,703.28)">
                    <path d="M0,-19.876L-5.698,-5.479L5.738,-5.479L0,-19.876ZM9.091,3.399L6.708,-2.56L-6.708,-2.56L-9.092,3.399L-12.93,3.399L-2.061,-23.275L2.101,-23.275L12.931,3.399L9.091,3.399Z" style="fill:white;fill-rule:nonzero;"/>
                </g>
                <g transform="matrix(4.16667,0,0,4.16667,-4280.05,683.954)">
                    <path d="M0,-10.599C0,-13.638 -2.222,-15.678 -5.415,-15.678L-12.486,-15.678L-12.486,-5.48L-5.415,-5.48C-2.222,-5.48 0,-7.599 0,-10.599M-0.243,8.038L-7.072,-2.56L-12.486,-2.56L-12.486,8.038L-15.84,8.038L-15.84,-18.637L-5.01,-18.637C-0.081,-18.637 3.475,-15.518 3.475,-10.599C3.475,-5.8 0.122,-3.161 -3.556,-2.84L3.718,8.038L-0.243,8.038Z" style="fill:white;fill-rule:nonzero;"/>
                </g>
                <g transform="matrix(4.16667,0,0,4.16667,-4103.08,661.788)">
                    <path d="M0,0.04C0,-5.719 -3.677,-10.358 -10.344,-10.358L-16.204,-10.358L-16.204,10.398L-10.344,10.398C-3.798,10.398 0,5.759 0,0.04M-19.558,13.357L-19.558,-13.317L-10.344,-13.317C-1.939,-13.317 3.475,-7.519 3.475,0.04C3.475,7.639 -1.939,13.357 -10.344,13.357L-19.558,13.357Z" style="fill:white;fill-rule:nonzero;"/>
                </g>
                <g transform="matrix(4.16667,0,0,4.16667,-3925.26,606.298)">
                    <path d="M0,26.675L-5.94,5.158L-11.88,26.675L-15.517,26.675L-23.194,0L-19.476,0L-13.496,22.236L-7.313,0L-4.525,0L1.658,22.236L7.598,0L11.354,0L3.637,26.675L0,26.675Z" style="fill:white;fill-rule:nonzero;"/>
                </g>
                <g transform="matrix(4.16667,0,0,4.16667,-3714.25,661.955)">
                    <path d="M0,0C0,-6.239 -3.92,-10.838 -9.941,-10.838C-16.002,-10.838 -19.84,-6.239 -19.84,0C-19.84,6.199 -16.002,10.838 -9.941,10.838C-3.92,10.838 0,6.199 0,0M-23.315,0C-23.315,-7.879 -17.901,-13.798 -9.941,-13.798C-1.98,-13.798 3.475,-7.879 3.475,0C3.475,7.879 -1.98,13.798 -9.941,13.798C-17.901,13.798 -23.315,7.879 -23.315,0" style="fill:white;fill-rule:nonzero;"/>
                </g>
                <g transform="matrix(4.16667,0,0,4.16667,-3526.5,661.955)">
                    <path d="M0,0C0,-6.239 -3.92,-10.838 -9.94,-10.838C-16.002,-10.838 -19.84,-6.239 -19.84,0C-19.84,6.199 -16.002,10.838 -9.94,10.838C-3.92,10.838 0,6.199 0,0M-23.315,0C-23.315,-7.879 -17.901,-13.798 -9.94,-13.798C-1.98,-13.798 3.475,-7.879 3.475,0C3.475,7.879 -1.98,13.798 -9.94,13.798C-17.901,13.798 -23.315,7.879 -23.315,0" style="fill:white;fill-rule:nonzero;"/>
                </g>
                <g transform="matrix(4.16667,0,0,4.16667,-3349.85,661.788)">
                    <path d="M0,0.04C0,-5.719 -3.678,-10.358 -10.345,-10.358L-16.205,-10.358L-16.205,10.398L-10.345,10.398C-3.799,10.398 0,5.759 0,0.04M-19.559,13.357L-19.559,-13.317L-10.345,-13.317C-1.94,-13.317 3.475,-7.519 3.475,0.04C3.475,7.639 -1.94,13.357 -10.345,13.357L-19.559,13.357Z" style="fill:white;fill-rule:nonzero;"/>
                </g>
                <g transform="matrix(4.16667,0,0,4.16667,-3159.87,606.298)">
                    <path d="M0,26.675L0,0L17.659,0L17.659,2.959L3.354,2.959L3.354,11.558L17.376,11.558L17.376,14.518L3.354,14.518L3.354,26.675L0,26.675Z" style="fill:white;fill-rule:nonzero;"/>
                </g>
                <g transform="matrix(4.16667,0,0,4.16667,-3010,606.298)">
                    <path d="M0,26.675L0,0L3.354,0L3.354,23.716L15.88,23.716L15.88,26.675L0,26.675Z" style="fill:white;fill-rule:nonzero;"/>
                </g>
                <g transform="matrix(4.16667,0,0,4.16667,-2779.31,661.955)">
                    <path d="M0,0C0,-6.239 -3.92,-10.838 -9.941,-10.838C-16.002,-10.838 -19.841,-6.239 -19.841,0C-19.841,6.199 -16.002,10.838 -9.941,10.838C-3.92,10.838 0,6.199 0,0M-23.315,0C-23.315,-7.879 -17.901,-13.798 -9.941,-13.798C-1.98,-13.798 3.475,-7.879 3.475,0C3.475,7.879 -1.98,13.798 -9.941,13.798C-17.901,13.798 -23.315,7.879 -23.315,0" style="fill:white;fill-rule:nonzero;"/>
                </g>
                <g transform="matrix(4.16667,0,0,4.16667,-2591.56,661.955)">
                    <path d="M0,0C0,-6.239 -3.92,-10.838 -9.94,-10.838C-16.002,-10.838 -19.84,-6.239 -19.84,0C-19.84,6.199 -16.002,10.838 -9.94,10.838C-3.92,10.838 0,6.199 0,0M-23.315,0C-23.315,-7.879 -17.901,-13.798 -9.94,-13.798C-1.98,-13.798 3.476,-7.879 3.476,0C3.476,7.879 -1.98,13.798 -9.94,13.798C-17.901,13.798 -23.315,7.879 -23.315,0" style="fill:white;fill-rule:nonzero;"/>
                </g>
                <g transform="matrix(4.16667,0,0,4.16667,-2430.4,683.954)">
                    <path d="M0,-10.599C0,-13.638 -2.223,-15.678 -5.415,-15.678L-12.487,-15.678L-12.487,-5.48L-5.415,-5.48C-2.223,-5.48 0,-7.599 0,-10.599M-0.243,8.038L-7.072,-2.56L-12.487,-2.56L-12.487,8.038L-15.841,8.038L-15.841,-18.637L-5.011,-18.637C-0.081,-18.637 3.475,-15.518 3.475,-10.599C3.475,-5.8 0.121,-3.161 -3.557,-2.84L3.718,8.038L-0.243,8.038Z" style="fill:white;fill-rule:nonzero;"/>
                </g>
                <g transform="matrix(4.16667,0,0,4.16667,-2341.65,622.128)">
                    <path d="M0,19.117L2.021,16.557C3.759,18.556 6.667,20.396 10.466,20.396C15.274,20.396 16.811,17.837 16.811,15.758C16.811,8.879 0.849,12.718 0.849,3.199C0.849,-1.2 4.81,-4.239 10.143,-4.239C14.225,-4.239 17.416,-2.84 19.679,-0.48L17.659,1.96C15.639,-0.28 12.81,-1.239 9.86,-1.239C6.667,-1.239 4.324,0.48 4.324,3C4.324,8.999 20.285,5.559 20.285,15.517C20.285,19.356 17.618,23.356 10.345,23.356C5.698,23.356 2.224,21.596 0,19.117" style="fill:white;fill-rule:nonzero;"/>
                </g>
            </g>
            <g transform="matrix(1.36703,0,0,1.45889,-5157.85,664.109)">
                <path d="M0,-203.119L-105.345,-96.369L-127.376,-118.359L-233.175,-34.756L-127.376,-138.52L-105.345,-116.52L0,-223.207L189.494,-34.756L0,-203.119ZM0,-237.393L-105.345,-130.726L-127.376,-152.726L-314.343,34.274L-285.973,34.274L-134.438,-67.63L-105.345,-45.508L0,-123.89L242.286,34.274L270.656,34.274L0,-237.393Z" style="fill:white;fill-rule:nonzero;"/>
            </g>
        </g>
    </g>
</svg>
