<?xml version="1.0" encoding="UTF-8" standalone="no"?>
<!DOCTYPE svg PUBLIC "-//W3C//DTD SVG 1.1//EN" "http://www.w3.org/Graphics/SVG/1.1/DTD/svg11.dtd">
<svg width="100%" height="100%" viewBox="0 0 834 834" version="1.1" xmlns="http://www.w3.org/2000/svg" xmlns:xlink="http://www.w3.org/1999/xlink" xml:space="preserve" xmlns:serif="http://www.serif.com/" style="fill-rule:evenodd;clip-rule:evenodd;stroke-linejoin:round;stroke-miterlimit:2;">
    <g transform="matrix(1,0,0,1,0,-2012)">
        <g id="Artboard1" transform="matrix(1.23277,0,0,1.23277,5465.61,-469.393)">
            <rect x="-4433.58" y="2012.85" width="675.982" height="675.982" style="fill:none;"/>
            <clipPath id="_clip1">
                <rect x="-4433.58" y="2012.85" width="675.982" height="675.982"/>
            </clipPath>
            <g clip-path="url(#_clip1)">
                <g transform="matrix(2.22269,0,0,2.22269,-4014.59,2540.5)">
                    <path d="M0,-203.119L-75.106,-101.886L-112.194,-124.382L-211.506,-34.756L-112.194,-141.127L-71.977,-118.621L0,-223.207L166.798,-34.756L0,-203.119ZM0,-237.393L-75.106,-130.22L-112.194,-152.726L-283.979,34.274L-255.609,34.274L-114.042,-82.965L-63.869,-55.277L0,-102.866L211.922,34.274L240.292,34.274L0,-237.393Z" style="fill:rgb(121,22,23);fill-rule:nonzero;"/>
                </g>
                <g transform="matrix(0.811178,0,0,0.811178,-4542.45,413.09)">
                    <text x="185.15px" y="2757.48px" style="font-family:'Montserrat-Bold', 'Montserrat';font-weight:700;font-size:266.667px;fill:rgb(55,55,55);">A H F</text>
                </g>
            </g>
        </g>
    </g>
</svg>
